# xmcd CD database file
#
# Track frame offsets:
#	150
#	21097
#	48754
#	64792
#	82293
#	101066
#	107424
#	115669
#	127226
#	140681
#	158058
#	184334
#	212834
#	233889
#	259446
#
# Disc length: 3615 seconds
#
# Revision: 0
# Processed by: cddbd v1.5.2PL0 Copyright (c) Steve Scherf et al.
# Submitted via: CDex 1.70beta2
#
DISCID=dc0e1d0f
DTITLE=渡辺香津美 - Guitar Renaissance Ⅳ［響］
DYEAR=2007
DGENRE=Jazz
TTITLE0=ELEANOR RIGBY
TTITLE1=TAMAYURA
TTITLE2=SARABANDE from Suite for unaccompanied Violoncello No.1 BWV 1007
TTITLE3=SPAIN
TTITLE4=NARDIS
TTITLE5=DESPIERTE LA NOVIA
TTITLE6=PROLOGUE
TTITLE7=NANA DE SEVILLA
TTITLE8=LAS MORILLAS DE JAEN
TTITLE9=CRESCENT
TTITLE10=BLOOD ESCAPE
TTITLE11=JAMMING IBERICO
TTITLE12=CELEBRACION BLANCA
TTITLE13=(EL AMOR BRUJO) CANCION DEL FUEGO FATUO-DANZA RITUAL DEL FUEGO
TTITLE14=ROMANCE
EXTD=YEAR: 2007
EXTT0=
EXTT1=
EXTT2=
EXTT3=
EXTT4=
EXTT5=
EXTT6=
EXTT7=
EXTT8=
EXTT9=
EXTT10=
EXTT11=
EXTT12=
EXTT13=
EXTT14=
PLAYORDER=
